<svg data-v-423bf9ae="" xmlns="http://www.w3.org/2000/svg" viewBox="0 0 368 90" class="iconLeft"><!----><!----><!----><g data-v-423bf9ae="" id="9e541187-1254-4f17-9885-539d06735513" fill="#FFFFFF" transform="matrix(4.444444444444445,0,0,4.444444444444445,96.55765122837491,5.311110575993851)"><path d="M2.11 6.69L2.11 11.75L2.11 11.75Q2.24 11.84 2.43 11.96L2.43 11.96L2.43 11.96Q2.62 12.07 2.87 12.17L2.87 12.17L2.87 12.17Q3.12 12.26 3.42 12.33L3.42 12.33L3.42 12.33Q3.71 12.39 4.03 12.39L4.03 12.39L4.03 12.39Q4.70 12.39 5.16 12.16L5.16 12.16L5.16 12.16Q5.61 11.93 5.89 11.53L5.89 11.53L5.89 11.53Q6.17 11.13 6.30 10.59L6.30 10.59L6.30 10.59Q6.43 10.05 6.43 9.45L6.43 9.45L6.43 9.45Q6.43 8.02 5.71 7.26L5.71 7.26L5.71 7.26Q5.00 6.50 3.82 6.50L3.82 6.50L3.82 6.50Q3.15 6.50 2.74 6.56L2.74 6.56L2.74 6.56Q2.32 6.62 2.11 6.69L2.11 6.69ZM2.11 12.63L2.11 15.64L1.20 15.64L1.20 6.06L1.20 6.06Q1.61 5.92 2.24 5.80L2.24 5.80L2.24 5.80Q2.87 5.67 3.84 5.67L3.84 5.67L3.84 5.67Q4.63 5.67 5.29 5.93L5.29 5.93L5.29 5.93Q5.94 6.19 6.41 6.68L6.41 6.68L6.41 6.68Q6.87 7.17 7.13 7.87L7.13 7.87L7.13 7.87Q7.39 8.57 7.39 9.45L7.39 9.45L7.39 9.45Q7.39 10.28 7.17 10.97L7.17 10.97L7.17 10.97Q6.96 11.66 6.54 12.16L6.54 12.16L6.54 12.16Q6.12 12.66 5.51 12.94L5.51 12.94L5.51 12.94Q4.90 13.22 4.12 13.22L4.12 13.22L4.12 13.22Q3.40 13.22 2.88 13.01L2.88 13.01L2.88 13.01Q2.35 12.81 2.11 12.63L2.11 12.63ZM11.65 12.39L11.65 12.39L11.65 12.39Q12.18 12.39 12.58 12.36L12.58 12.36L12.58 12.36Q12.98 12.32 13.26 12.26L13.26 12.26L13.26 9.72L13.26 9.72Q13.10 9.65 12.77 9.57L12.77 9.57L12.77 9.57Q12.43 9.49 11.84 9.49L11.84 9.49L11.84 9.49Q11.51 9.49 11.14 9.54L11.14 9.54L11.14 9.54Q10.78 9.59 10.47 9.75L10.47 9.75L10.47 9.75Q10.16 9.91 9.97 10.19L9.97 10.19L9.97 10.19Q9.77 10.47 9.77 10.93L9.77 10.93L9.77 10.93Q9.77 11.34 9.91 11.62L9.91 11.62L9.91 11.62Q10.04 11.90 10.28 12.07L10.28 12.07L10.28 12.07Q10.53 12.24 10.87 12.31L10.87 12.31L10.87 12.31Q11.21 12.39 11.65 12.39ZM11.56 5.64L11.56 5.64L11.56 5.64Q12.28 5.64 12.78 5.84L12.78 5.84L12.78 5.84Q13.27 6.05 13.58 6.41L13.58 6.41L13.58 6.41Q13.89 6.76 14.03 7.25L14.03 7.25L14.03 7.25Q14.17 7.74 14.17 8.32L14.17 8.32L14.17 12.88L14.17 12.88Q14.03 12.92 13.76 12.97L13.76 12.97L13.76 12.97Q13.50 13.02 13.15 13.08L13.15 13.08L13.15 13.08Q12.80 13.13 12.37 13.17L12.37 13.17L12.37 13.17Q11.94 13.20 11.49 13.20L11.49 13.20L11.49 13.20Q10.92 13.20 10.44 13.08L10.44 13.08L10.44 13.08Q9.95 12.95 9.60 12.68L9.60 12.68L9.60 12.68Q9.24 12.40 9.04 11.98L9.04 11.98L9.04 11.98Q8.83 11.55 8.83 10.93L8.83 10.93L8.83 10.93Q8.83 10.35 9.06 9.93L9.06 9.93L9.06 9.93Q9.28 9.51 9.69 9.23L9.69 9.23L9.69 9.23Q10.09 8.96 10.65 8.83L10.65 8.83L10.65 8.83Q11.21 8.71 11.87 8.71L11.87 8.71L11.87 8.71Q12.07 8.71 12.29 8.73L12.29 8.73L12.29 8.73Q12.50 8.75 12.71 8.79L12.71 8.79L12.71 8.79Q12.91 8.82 13.05 8.86L13.05 8.86L13.05 8.86Q13.20 8.89 13.26 8.92L13.26 8.92L13.26 8.47L13.26 8.47Q13.26 8.09 13.20 7.74L13.20 7.74L13.20 7.74Q13.15 7.38 12.96 7.09L12.96 7.09L12.96 7.09Q12.77 6.80 12.43 6.63L12.43 6.63L12.43 6.63Q12.08 6.45 11.52 6.45L11.52 6.45L11.52 6.45Q10.72 6.45 10.33 6.57L10.33 6.57L10.33 6.57Q9.94 6.68 9.76 6.75L9.76 6.75L9.63 5.95L9.63 5.95Q9.87 5.84 10.37 5.74L10.37 5.74L10.37 5.74Q10.86 5.64 11.56 5.64ZM18.96 5.67L18.96 5.67L18.96 5.67Q19.40 5.67 19.80 5.74L19.80 5.74L19.80 5.74Q20.20 5.81 20.36 5.88L20.36 5.88L20.17 6.66L20.17 6.66Q20.06 6.61 19.72 6.54L19.72 6.54L19.72 6.54Q19.38 6.48 18.82 6.48L18.82 6.48L18.82 6.48Q18.23 6.48 17.87 6.57L17.87 6.57L17.87 6.57Q17.51 6.65 17.40 6.71L17.40 6.71L17.40 13.05L16.49 13.05L16.49 6.15L16.49 6.15Q16.84 5.99 17.46 5.83L17.46 5.83L17.46 5.83Q18.07 5.67 18.96 5.67ZM22.58 3.51L22.58 5.81L25.47 5.81L25.47 6.58L22.58 6.58L22.58 10.43L22.58 10.43Q22.58 11.05 22.69 11.43L22.69 11.43L22.69 11.43Q22.79 11.82 22.99 12.03L22.99 12.03L22.99 12.03Q23.18 12.24 23.46 12.31L23.46 12.31L23.46 12.31Q23.74 12.38 24.08 12.38L24.08 12.38L24.08 12.38Q24.65 12.38 25.00 12.24L25.00 12.24L25.00 12.24Q25.35 12.11 25.55 12.00L25.55 12.00L25.77 12.75L25.77 12.75Q25.58 12.88 25.09 13.04L25.09 13.04L25.09 13.04Q24.60 13.20 24.02 13.20L24.02 13.20L24.02 13.20Q23.35 13.20 22.90 13.03L22.90 13.03L22.90 13.03Q22.44 12.85 22.17 12.49L22.17 12.49L22.17 12.49Q21.90 12.14 21.78 11.61L21.78 11.61L21.78 11.61Q21.67 11.07 21.67 10.35L21.67 10.35L21.67 3.68L22.58 3.51ZM29.12 13.20L29.12 13.20L29.12 13.20Q28.66 12.35 28.23 11.42L28.23 11.42L28.23 11.42Q27.80 10.50 27.43 9.55L27.43 9.55L27.43 9.55Q27.06 8.61 26.75 7.67L26.75 7.67L26.75 7.67Q26.45 6.72 26.22 5.81L26.22 5.81L27.19 5.81L27.19 5.81Q27.34 6.48 27.58 7.26L27.58 7.26L27.58 7.26Q27.82 8.04 28.12 8.86L28.12 8.86L28.12 8.86Q28.42 9.69 28.78 10.56L28.78 10.56L28.78 10.56Q29.15 11.42 29.57 12.26L29.57 12.26L29.57 12.26Q29.88 11.40 30.11 10.63L30.11 10.63L30.11 10.63Q30.35 9.86 30.55 9.09L30.55 9.09L30.55 9.09Q30.76 8.33 30.95 7.53L30.95 7.53L30.95 7.53Q31.14 6.73 31.35 5.81L31.35 5.81L32.26 5.81L32.26 5.81Q31.81 7.84 31.23 9.76L31.23 9.76L31.23 9.76Q30.66 11.68 29.99 13.27L29.99 13.27L29.99 13.27Q29.72 13.90 29.44 14.36L29.44 14.36L29.44 14.36Q29.16 14.81 28.82 15.11L28.82 15.11L28.82 15.11Q28.48 15.40 28.02 15.54L28.02 15.54L28.02 15.54Q27.57 15.68 26.95 15.68L26.95 15.68L26.95 15.68Q26.60 15.68 26.31 15.60L26.31 15.60L26.31 15.60Q26.03 15.51 25.96 15.47L25.96 15.47L26.14 14.71L26.14 14.71Q26.19 14.76 26.45 14.83L26.45 14.83L26.45 14.83Q26.71 14.91 26.99 14.91L26.99 14.91L26.99 14.91Q27.38 14.91 27.70 14.83L27.70 14.83L27.70 14.83Q28.01 14.74 28.27 14.54L28.27 14.54L28.27 14.54Q28.52 14.34 28.72 14.01L28.72 14.01L28.72 14.01Q28.92 13.69 29.12 13.20ZM34.69 6.69L34.69 11.75L34.69 11.75Q34.82 11.84 35.01 11.96L35.01 11.96L35.01 11.96Q35.20 12.07 35.45 12.17L35.45 12.17L35.45 12.17Q35.70 12.26 35.99 12.33L35.99 12.33L35.99 12.33Q36.29 12.39 36.61 12.39L36.61 12.39L36.61 12.39Q37.28 12.39 37.74 12.16L37.74 12.16L37.74 12.16Q38.19 11.93 38.47 11.53L38.47 11.53L38.47 11.53Q38.75 11.13 38.88 10.59L38.88 10.59L38.88 10.59Q39.00 10.05 39.00 9.45L39.00 9.45L39.00 9.45Q39.00 8.02 38.29 7.26L38.29 7.26L38.29 7.26Q37.58 6.50 36.40 6.50L36.40 6.50L36.40 6.50Q35.73 6.50 35.32 6.56L35.32 6.56L35.32 6.56Q34.90 6.62 34.69 6.69L34.69 6.69ZM34.69 12.63L34.69 15.64L33.78 15.64L33.78 6.06L33.78 6.06Q34.19 5.92 34.82 5.80L34.82 5.80L34.82 5.80Q35.45 5.67 36.41 5.67L36.41 5.67L36.41 5.67Q37.21 5.67 37.86 5.93L37.86 5.93L37.86 5.93Q38.51 6.19 38.98 6.68L38.98 6.68L38.98 6.68Q39.45 7.17 39.71 7.87L39.71 7.87L39.71 7.87Q39.97 8.57 39.97 9.45L39.97 9.45L39.97 9.45Q39.97 10.28 39.75 10.97L39.75 10.97L39.75 10.97Q39.54 11.66 39.12 12.16L39.12 12.16L39.12 12.16Q38.70 12.66 38.09 12.94L38.09 12.94L38.09 12.94Q37.48 13.22 36.69 13.22L36.69 13.22L36.69 13.22Q35.98 13.22 35.46 13.01L35.46 13.01L35.46 13.01Q34.93 12.81 34.69 12.63L34.69 12.63ZM42.85 5.81L42.85 13.05L41.94 13.05L41.94 5.81L42.85 5.81ZM43.06 3.63L43.06 3.63L43.06 3.63Q43.06 3.95 42.87 4.14L42.87 4.14L42.87 4.14Q42.67 4.33 42.39 4.33L42.39 4.33L42.39 4.33Q42.11 4.33 41.92 4.14L41.92 4.14L41.92 4.14Q41.72 3.95 41.72 3.63L41.72 3.63L41.72 3.63Q41.72 3.30 41.92 3.12L41.92 3.12L41.92 3.12Q42.11 2.93 42.39 2.93L42.39 2.93L42.39 2.93Q42.67 2.93 42.87 3.12L42.87 3.12L42.87 3.12Q43.06 3.30 43.06 3.63ZM47.22 12.42L47.10 13.17L47.10 13.17Q46.63 13.16 46.29 13.05L46.29 13.05L46.29 13.05Q45.95 12.95 45.72 12.73L45.72 12.73L45.72 12.73Q45.49 12.52 45.37 12.17L45.37 12.17L45.37 12.17Q45.25 11.83 45.25 11.31L45.25 11.31L45.25 2.35L46.16 2.18L46.16 11.28L46.16 11.28Q46.16 11.62 46.22 11.82L46.22 11.82L46.22 11.82Q46.28 12.03 46.41 12.14L46.41 12.14L46.41 12.14Q46.54 12.26 46.74 12.32L46.74 12.32L46.74 12.32Q46.94 12.38 47.22 12.42L47.22 12.42ZM55.01 9.44L55.01 9.44L55.01 9.44Q55.01 10.29 54.76 10.99L54.76 10.99L54.76 10.99Q54.52 11.69 54.08 12.18L54.08 12.18L54.08 12.18Q53.63 12.67 53.03 12.94L53.03 12.94L53.03 12.94Q52.43 13.22 51.70 13.22L51.70 13.22L51.70 13.22Q50.97 13.22 50.37 12.94L50.37 12.94L50.37 12.94Q49.77 12.67 49.33 12.18L49.33 12.18L49.33 12.18Q48.89 11.69 48.64 10.99L48.64 10.99L48.64 10.99Q48.40 10.29 48.40 9.44L48.40 9.44L48.40 9.44Q48.40 8.58 48.64 7.88L48.64 7.88L48.64 7.88Q48.89 7.18 49.33 6.68L49.33 6.68L49.33 6.68Q49.77 6.19 50.37 5.92L50.37 5.92L50.37 5.92Q50.97 5.64 51.70 5.64L51.70 5.64L51.70 5.64Q52.43 5.64 53.03 5.92L53.03 5.92L53.03 5.92Q53.63 6.19 54.08 6.68L54.08 6.68L54.08 6.68Q54.52 7.18 54.76 7.88L54.76 7.88L54.76 7.88Q55.01 8.58 55.01 9.44ZM54.04 9.44L54.04 9.44L54.04 9.44Q54.04 8.08 53.41 7.27L53.41 7.27L53.41 7.27Q52.78 6.47 51.70 6.47L51.70 6.47L51.70 6.47Q50.62 6.47 49.99 7.27L49.99 7.27L49.99 7.27Q49.36 8.08 49.36 9.44L49.36 9.44L49.36 9.44Q49.36 10.79 49.99 11.59L49.99 11.59L49.99 11.59Q50.62 12.39 51.70 12.39L51.70 12.39L51.70 12.39Q52.78 12.39 53.41 11.59L53.41 11.59L53.41 11.59Q54.04 10.79 54.04 9.44ZM57.83 3.51L57.83 5.81L60.72 5.81L60.72 6.58L57.83 6.58L57.83 10.43L57.83 10.43Q57.83 11.05 57.94 11.43L57.94 11.43L57.94 11.43Q58.04 11.82 58.24 12.03L58.24 12.03L58.24 12.03Q58.44 12.24 58.72 12.31L58.72 12.31L58.72 12.31Q59.00 12.38 59.33 12.38L59.33 12.38L59.33 12.38Q59.91 12.38 60.26 12.24L60.26 12.24L60.26 12.24Q60.61 12.11 60.80 12.00L60.80 12.00L61.03 12.75L61.03 12.75Q60.83 12.88 60.34 13.04L60.34 13.04L60.34 13.04Q59.85 13.20 59.28 13.20L59.28 13.20L59.28 13.20Q58.60 13.20 58.15 13.03L58.15 13.03L58.15 13.03Q57.69 12.85 57.42 12.49L57.42 12.49L57.42 12.49Q57.15 12.14 57.04 11.61L57.04 11.61L57.04 11.61Q56.92 11.07 56.92 10.35L56.92 10.35L56.92 3.68L57.83 3.51Z"></path></g><!----><g data-v-423bf9ae="" id="d39052c1-615a-4109-9b94-30afdbea2f4d" transform="matrix(1.0011123300603315,0,0,1.0011123300603315,-8.955614211015813,-5.005672883201605)" stroke="none" fill="#375a7f"><path d="M58.2 5.1H17.3c-4.5 0-8.2 3.7-8.2 8.2v73.5c0 4.5 3.7 8.2 8.2 8.2h40.8c4.5 0 8.2-3.7 8.2-8.2v-8.2h-8.2v8.2H17.3v-8.2h16.3v-8.2H17.3V25.5h40.8v4.1h8.2V13.3c0-4.5-3.6-8.2-8.1-8.2zM17.3 17.3v-4.1h40.8v4.1H17.3z"></path><path d="M50 58.4c-.7-.1-1.3-.2-2-.2-5.6 0-10.2 4.6-10.2 10.2S42.4 78.6 48 78.6c4.9 0 9.1-3.5 10-8.2h.2V41.8h24.5v16.5c-.7-.1-1.3-.2-2-.2-5.6 0-10.2 4.6-10.2 10.2s4.6 10.2 10.2 10.2c4.9 0 9.1-3.5 10-8.2h.2V33.7H50v24.7z"></path></g><!----></svg>